# xmcd CD database file
#
# Track frame offsets:
#	150
#	24071
#	43682
#	60912
#	74194
#	87722
#	104525
#	131950
#	148456
#	173401
#	198541
#	219452
#	230397
#	257866
#	278154
#	304599
#	323262
#
# Disc length: 4656 seconds
#
# Revision: 0
# Processed by: cddbd v1.5.2PL0 Copyright (c) Steve Scherf et al.
# Submitted via: CDex 1.70beta2
#
DISCID=fc122e11
DTITLE=Various Artist - Best Jazz Ballads 100 Vol.5
DYEAR=2007
DGENRE=Jazz
TTITLE0=Dianne Reeves - In A Sentimental Mood
TTITLE1=Art Pepper - Body And Soul
TTITLE2=Jimmy Smith - What's New
TTITLE3=Julie London - Cry Me A River
TTITLE4=Stan Getz - Autumn Leaves
TTITLE5=Miles Davis - Yesterday
TTITLE6=Cassandra Wilson - You Don't Know What Love Is
TTITLE7=Bill Perkins - Angel Eyes
TTITLE8=Duke Ellington - Solitude
TTITLE9=Cannonball Adderley - I Guess I'll Hang My Tears Out To Dry
TTITLE10=The Three Sounds - Willow Weep For Me
TTITLE11=Holly Cole - Don't Smoke In Bed
TTITLE12=Sonny Rollins - Poor Butterfly
TTITLE13=Duke Pearson - Black Coffee
TTITLE14=Donald Byrd - I Got It Bad And That Ain't Good
TTITLE15=George Shearing - Gone With The Wind
TTITLE16=Jackie McLean Feat. Junko Ohnishi - Left Alone
EXTD=YEAR: 2007
EXTT0=
EXTT1=
EXTT2=
EXTT3=
EXTT4=
EXTT5=
EXTT6=
EXTT7=
EXTT8=
EXTT9=
EXTT10=
EXTT11=
EXTT12=
EXTT13=
EXTT14=
EXTT15=
EXTT16=
PLAYORDER=
